<?xml version="1.0" encoding="UTF-8"?><svg id="Ebene_1" xmlns="http://www.w3.org/2000/svg" viewBox="0 0 706.57 120.43"><defs><style>.cls-1{fill:#fff;}.cls-2{fill:#c4e6fa;}.cls-3{fill:#e2f3fd;}.cls-4{fill:#f4fafd;}.cls-5{fill:#2abded;}</style></defs><g><path class="cls-1" d="M180.93,98.92c-5.22,0-10.1-1-14.64-3-4.54-2-8.54-4.78-11.98-8.36-3.45-3.58-6.14-7.7-8.07-12.37-1.93-4.67-2.9-9.68-2.9-15.03s.95-10.26,2.85-14.93c1.9-4.67,4.57-8.78,8.02-12.32,3.45-3.54,7.44-6.33,11.98-8.36,4.54-2.03,9.46-3.04,14.74-3.04,4.64,0,8.86,.68,12.66,2.03,3.8,1.35,7.47,3.51,11.02,6.48,.58,.45,.92,.98,1.01,1.59,.1,.61,.02,1.19-.24,1.74-.26,.55-.64,.95-1.16,1.21-.13,.52-.45,.9-.97,1.16-.52,.26-1.11,.35-1.79,.29-.68-.06-1.34-.35-1.98-.87-2.51-2.19-5.25-3.82-8.21-4.88-2.96-1.06-6.41-1.59-10.34-1.59-4.19,0-8.1,.84-11.74,2.51-3.64,1.68-6.85,3.96-9.62,6.86-2.77,2.9-4.95,6.25-6.52,10.05-1.58,3.8-2.37,7.83-2.37,12.08s.79,8.47,2.37,12.27c1.58,3.8,3.75,7.15,6.52,10.05,2.77,2.9,5.97,5.17,9.62,6.81,3.64,1.64,7.55,2.46,11.74,2.46,3.54,0,6.89-.58,10.05-1.74,3.16-1.16,6.15-2.83,8.99-5.03,.77-.64,1.59-.9,2.46-.77,.87,.13,1.63,.52,2.27,1.16,.64,.64,.97,1.48,.97,2.51,0,.52-.08,.98-.24,1.4-.16,.42-.43,.85-.82,1.3-3.29,3.03-6.96,5.17-11.02,6.43-4.06,1.26-8.28,1.88-12.66,1.88Z"/><path class="cls-1" d="M243.16,98.44c-5.16,0-9.76-1.16-13.82-3.48-4.06-2.32-7.25-5.51-9.57-9.57-2.32-4.06-3.48-8.67-3.48-13.82s1.16-9.86,3.48-13.92c2.32-4.06,5.51-7.25,9.57-9.57,4.06-2.32,8.66-3.48,13.82-3.48s9.75,1.16,13.77,3.48c4.03,2.32,7.2,5.51,9.52,9.57,2.32,4.06,3.51,8.7,3.58,13.92,0,5.16-1.18,9.76-3.53,13.82-2.35,4.06-5.54,7.25-9.57,9.57-4.03,2.32-8.62,3.48-13.77,3.48Zm0-6.76c3.74,0,7.09-.87,10.05-2.61,2.96-1.74,5.28-4.12,6.96-7.15,1.67-3.03,2.51-6.47,2.51-10.34s-.84-7.33-2.51-10.39c-1.68-3.06-4-5.46-6.96-7.2-2.96-1.74-6.32-2.61-10.05-2.61s-7.09,.87-10.05,2.61c-2.96,1.74-5.3,4.14-7.01,7.2-1.71,3.06-2.56,6.52-2.56,10.39s.85,7.31,2.56,10.34c1.71,3.03,4.04,5.41,7.01,7.15,2.96,1.74,6.31,2.61,10.05,2.61Z"/><path class="cls-1" d="M311.01,98.44c-5.09,0-9.66-1.17-13.72-3.53-4.06-2.35-7.27-5.56-9.62-9.62-2.35-4.06-3.53-8.67-3.53-13.82s1.14-9.66,3.43-13.72c2.29-4.06,5.4-7.26,9.33-9.62,3.93-2.35,8.37-3.53,13.34-3.53,4.32,0,8.21,.92,11.69,2.75,3.48,1.84,6.28,4.27,8.41,7.3V26.25c0-1.16,.35-2.08,1.06-2.75,.71-.68,1.61-1.01,2.71-1.01s2,.34,2.71,1.01c.71,.68,1.06,1.59,1.06,2.75v45.62c-.13,5.03-1.37,9.55-3.72,13.58-2.35,4.03-5.54,7.2-9.57,9.52-4.03,2.32-8.55,3.48-13.58,3.48Zm0-6.76c3.74,0,7.07-.88,10-2.66,2.93-1.77,5.25-4.17,6.96-7.2,1.71-3.03,2.56-6.48,2.56-10.34s-.85-7.23-2.56-10.29c-1.71-3.06-4.03-5.46-6.96-7.2-2.93-1.74-6.27-2.61-10-2.61s-6.99,.87-9.95,2.61c-2.96,1.74-5.32,4.14-7.05,7.2-1.74,3.06-2.61,6.49-2.61,10.29s.87,7.31,2.61,10.34c1.74,3.03,4.09,5.43,7.05,7.2,2.96,1.77,6.28,2.66,9.95,2.66Z"/><path class="cls-1" d="M401.46,57.17c-2-3.93-4.82-7.01-8.46-9.23-3.64-2.22-7.91-3.33-12.81-3.33s-9.34,1.16-13.14,3.48c-3.8,2.32-6.78,5.49-8.94,9.52-2.16,4.03-3.24,8.68-3.24,13.96s1.14,9.86,3.43,13.92c2.29,4.06,5.44,7.23,9.47,9.52,4.03,2.29,8.65,3.43,13.87,3.43,3.03,0,6.18-.59,9.47-1.79,3.29-1.19,5.99-2.69,8.12-4.49,.77-.64,1.14-1.42,1.11-2.32-.03-.9-.47-1.74-1.3-2.51-.64-.51-1.42-.76-2.32-.72-.9,.03-1.71,.34-2.42,.92-1.42,1.22-3.3,2.24-5.65,3.05-2.35,.81-4.69,1.21-7.01,1.21-3.87,0-7.28-.87-10.25-2.61-2.96-1.74-5.3-4.12-7.01-7.15-1.35-2.39-2.16-5.07-2.44-8.02h39.02c1.03,0,1.87-.3,2.51-.92,.64-.61,.97-1.43,.97-2.46,0-5.03-1-9.5-3-13.43Zm-30.93-3.29c2.77-1.74,5.99-2.61,9.66-2.61s6.72,.84,9.33,2.51c2.61,1.68,4.62,4,6.04,6.96,1.03,2.15,1.66,4.5,1.91,7.06h-35.38c.33-2.43,1-4.67,2.01-6.72,1.51-3.06,3.65-5.46,6.43-7.2Z"/><path class="cls-1" d="M424.17,97.96c-1.1,0-2-.35-2.7-1.06-.71-.71-1.06-1.61-1.06-2.71V26.25c0-1.09,.35-2,1.06-2.71,.71-.71,1.61-1.06,2.7-1.06h45.33c1.03,0,1.92,.34,2.66,1.01,.74,.68,1.11,1.56,1.11,2.66,0,.97-.37,1.8-1.11,2.51-.74,.71-1.63,1.06-2.66,1.06h-41.56v26.67h30.25c1.09,0,2,.36,2.7,1.06,.71,.71,1.06,1.58,1.06,2.61s-.35,1.9-1.06,2.61c-.71,.71-1.61,1.06-2.7,1.06h-30.25v26.96h41.56c1.03,0,1.92,.35,2.66,1.06,.74,.71,1.11,1.55,1.11,2.51,0,1.1-.37,1.98-1.11,2.66-.74,.68-1.63,1.01-2.66,1.01h-45.33Z"/><path class="cls-1" d="M512.02,22.48c-4.38,0-8.09,.95-11.11,2.85-3.03,1.9-5.32,4.56-6.86,7.97-1.55,3.42-2.32,7.38-2.32,11.89v1.84h-6.19c-1.03,0-1.85,.31-2.46,.92-.61,.61-.92,1.4-.92,2.37,0,.9,.31,1.66,.92,2.27,.61,.61,1.43,.92,2.46,.92h6.19v40.69c0,1.16,.35,2.08,1.06,2.75,.71,.68,1.55,1.01,2.51,1.01,1.22,0,2.17-.34,2.85-1.01,.68-.68,1.01-1.59,1.01-2.75V53.5h11.6c1.03,0,1.85-.31,2.46-.92,.61-.61,.92-1.37,.92-2.27,0-.97-.31-1.75-.92-2.37-.61-.61-1.44-.92-2.46-.92h-11.6v-2.22c0-3.03,.47-5.72,1.4-8.07,.93-2.35,2.35-4.19,4.25-5.51,1.9-1.32,4.3-1.98,7.2-1.98,1.1,0,2-.32,2.71-.97,.71-.64,1.06-1.45,1.06-2.42s-.36-1.77-1.06-2.42c-.71-.64-1.61-.97-2.71-.97Z"/><path class="cls-1" d="M535.94,36.73c.93-2.35,2.35-4.19,4.25-5.51,1.9-1.32,4.3-1.98,7.2-1.98,1.1,0,2-.32,2.71-.97,.71-.64,1.06-1.45,1.06-2.42s-.36-1.77-1.06-2.42c-.71-.64-1.61-.97-2.71-.97-4.38,0-8.09,.95-11.11,2.85-3.03,1.9-5.31,4.56-6.86,7.97-1.55,3.42-2.32,7.38-2.32,11.89v1.84h-6.19c-1.03,0-1.85,.31-2.46,.92-.61,.61-.92,1.4-.92,2.37,0,.9,.3,1.66,.92,2.27,.61,.61,1.43,.92,2.46,.92h6.19v40.69c0,1.16,.35,2.08,1.06,2.75,.71,.68,1.54,1.01,2.51,1.01,1.22,0,2.17-.34,2.85-1.01,.68-.68,1.01-1.59,1.01-2.75V53.5h11.6c1.03,0,1.85-.31,2.46-.92,.61-.61,.92-1.37,.92-2.27,0-.97-.31-1.75-.92-2.37-.61-.61-1.44-.92-2.46-.92h-11.6v-2.22c0-3.03,.47-5.72,1.4-8.07Z"/><path class="cls-1" d="M603.74,57.17c-2-3.93-4.82-7.01-8.45-9.23-3.64-2.22-7.91-3.33-12.81-3.33s-9.34,1.16-13.14,3.48c-3.8,2.32-6.78,5.49-8.94,9.52-2.16,4.03-3.24,8.68-3.24,13.96s1.14,9.86,3.43,13.92c2.29,4.06,5.44,7.23,9.47,9.52,4.03,2.29,8.65,3.43,13.87,3.43,3.03,0,6.18-.59,9.47-1.79,3.29-1.19,5.99-2.69,8.12-4.49,.77-.64,1.14-1.42,1.11-2.32-.03-.9-.47-1.74-1.3-2.51-.64-.51-1.42-.76-2.32-.72-.9,.03-1.71,.34-2.42,.92-1.42,1.22-3.3,2.24-5.65,3.05-2.35,.81-4.69,1.21-7.01,1.21-3.87,0-7.28-.87-10.25-2.61-2.96-1.74-5.3-4.12-7.01-7.15-1.35-2.39-2.16-5.07-2.44-8.02h39.02c1.03,0,1.87-.3,2.51-.92,.64-.61,.97-1.43,.97-2.46,0-5.03-1-9.5-3-13.43Zm-30.93-3.29c2.77-1.74,5.99-2.61,9.66-2.61s6.72,.84,9.33,2.51c2.61,1.68,4.62,4,6.04,6.96,1.03,2.15,1.66,4.5,1.91,7.06h-35.38c.33-2.43,1-4.67,2.01-6.72,1.51-3.06,3.65-5.46,6.43-7.2Z"/><path class="cls-1" d="M643.36,98.44c-5.09,0-9.62-1.17-13.58-3.53-3.96-2.35-7.09-5.56-9.37-9.62s-3.43-8.63-3.43-13.72,1.09-9.76,3.29-13.82c2.19-4.06,5.19-7.26,8.99-9.62,3.8-2.35,8.18-3.53,13.14-3.53,3.93,0,7.55,.77,10.87,2.32,3.32,1.55,6.23,3.87,8.75,6.96,.71,.77,.97,1.59,.77,2.46-.19,.87-.74,1.63-1.64,2.27-.71,.52-1.5,.69-2.37,.53-.87-.16-1.63-.63-2.27-1.4-3.74-4.25-8.44-6.38-14.11-6.38-3.61,0-6.78,.87-9.52,2.61-2.74,1.74-4.87,4.12-6.38,7.15-1.52,3.03-2.27,6.51-2.27,10.44s.8,7.31,2.42,10.34c1.61,3.03,3.87,5.41,6.76,7.15,2.9,1.74,6.22,2.61,9.95,2.61,2.51,0,4.82-.34,6.91-1.02,2.09-.68,3.95-1.72,5.56-3.14,.77-.64,1.58-1,2.42-1.06,.84-.06,1.61,.19,2.32,.77,.77,.71,1.21,1.51,1.3,2.42,.1,.9-.21,1.68-.92,2.32-4.71,4.32-10.57,6.48-17.59,6.48Z"/><path class="cls-1" d="M705.6,91.58c-.64-.71-1.48-1.06-2.51-1.06h-2.61c-3.03,0-5.51-1.05-7.44-3.14-1.93-2.09-2.9-4.78-2.9-8.07v-25.8h10.92c.96,0,1.77-.31,2.42-.92,.64-.61,.96-1.37,.96-2.27,0-.97-.32-1.75-.96-2.37-.65-.61-1.45-.92-2.42-.92h-10.92v-14.98c0-1.09-.36-2-1.06-2.71-.71-.71-1.61-1.06-2.71-1.06s-1.98,.35-2.66,1.06c-.68,.71-1.02,1.61-1.02,2.71v14.98h-6.28c-.97,0-1.77,.31-2.42,.92-.64,.61-.97,1.4-.97,2.37,0,.9,.32,1.66,.97,2.27,.64,.61,1.45,.92,2.42,.92h6.28v25.8c0,3.61,.77,6.81,2.32,9.62,1.54,2.8,3.65,5.01,6.33,6.62,2.67,1.61,5.72,2.42,9.13,2.42h2.03c1.16,0,2.12-.34,2.9-1.01,.77-.68,1.16-1.56,1.16-2.66s-.32-2-.97-2.71Z"/></g><g><path class="cls-3" d="M56.39,41.14h.01s25.15,9.84,25.15,9.84h-.03v28.5l29.7,11.35c.91-1.4,1.5-3.04,1.5-4.48V24.06c0-1.45-.66-3-1.65-4.24l-54.69,21.32h.01Z"/><polygon class="cls-4" points="56.34 62.63 81.52 50.98 81.52 50.99 81.55 50.98 56.4 41.13 56.39 41.14 31.21 50.98 56.34 62.63"/><path class="cls-3" d="M31.21,79.48L1.5,90.83c.77,1.18,1.75,2.21,2.82,2.79l47.64,25.85c1.13,.61,2.73,.96,4.39,.96h0v-27.55s-25.14-13.4-25.14-13.4Z"/><polygon class="cls-5" points="56.34 62.63 56.35 92.87 56.35 92.87 56.35 92.88 81.52 79.48 81.52 50.99 81.52 50.98 56.34 62.63"/><path class="cls-4" d="M108.21,17.64L61.31,.72c-1.27-.46-3.06-.72-4.92-.72s-3.64,.26-4.9,.72L4.51,17.64c-1.08,.39-2.07,1.19-2.85,2.17l54.72,21.32,54.69-21.32c-.79-.98-1.78-1.78-2.85-2.17Z"/><path class="cls-5" d="M31.21,50.98l25.15-9.85L1.66,19.81c-1,1.25-1.66,2.79-1.66,4.25v62.29c0,1.45,.6,3.08,1.5,4.49l29.71-11.35v-28.5Z"/><path class="cls-2" d="M56.35,92.88v27.55c1.67,0,3.26-.35,4.39-.96l47.64-25.85c1.07-.58,2.06-1.61,2.83-2.79l-29.7-11.35-25.17,13.4Z"/><polygon class="cls-2" points="56.35 92.87 56.34 62.63 31.21 50.98 31.21 79.48 56.35 92.87 56.35 92.87"/></g></svg>